<svg width="63" height="23" viewBox="0 0 63 23" fill="none" xmlns="http://www.w3.org/2000/svg">
<path fill-rule="evenodd" clip-rule="evenodd" d="M4.28034 0L3.20959 2.9852H18.0478L19.1186 0H4.28034ZM2.67388 4.47712L1.60312 7.46164H16.4414L17.5121 4.47712H2.67388ZM1.07075 8.95424L0 11.9388H14.8382L15.9083 8.95424H1.07075Z" fill="#009FDF"/>
<path fill-rule="evenodd" clip-rule="evenodd" d="M31.5448 13.076V13.139C32.2229 13.3923 32.8706 13.8353 33.21 14.1198C34.2586 15.0057 34.7215 16.1762 34.7215 17.6947C34.7215 20.1948 33.426 21.9978 31.2978 22.5675C30.6501 22.7571 29.972 22.8208 28.7068 22.8208H22.2617V4.53418H27.9673C29.1393 4.53418 29.9409 4.59717 30.6501 4.78681C32.7168 5.35645 34.0737 6.81205 34.0737 9.12106C34.0737 10.3552 33.6419 11.3996 32.9327 12.0952C32.6244 12.4115 32.1925 12.7915 31.5448 13.076ZM25.8392 15.0057V19.8148H28.3067C29.0462 19.8148 29.725 19.7518 30.2189 19.277C30.7122 18.8022 30.9281 18.2014 30.9281 17.4103C30.9281 16.8095 30.7736 16.2398 30.4652 15.8287C29.9409 15.1642 29.2932 15.0057 28.1832 15.0057H25.8392ZM25.8082 11.8419H27.8128C28.4295 11.8419 28.7379 11.8419 29.0462 11.7471C29.8795 11.4938 30.4038 10.7352 30.4038 9.6907C30.4038 8.45729 29.8485 7.9188 29.0462 7.66616C28.7068 7.57134 28.3681 7.5395 27.6893 7.5395H25.8082V11.8419ZM40.0877 22.8208V7.60248H34.9374V4.53418H49.2479L48.2304 7.60248H43.6651V22.8208H40.0877ZM50.3579 22.8208V4.53418H61.9546L60.9371 7.60248H53.905V11.6523H56.7733C59.0863 11.6523 60.2894 12.2219 61.122 12.9493C61.7697 13.519 62.8797 14.7842 62.8797 17.2843C62.8797 19.7518 61.7387 21.1119 60.7826 21.8082C59.6727 22.5986 58.5006 22.8208 56.1256 22.8208H50.3579ZM53.905 19.7518H56.5884C57.6059 19.7518 58.2226 19.4985 58.6545 18.9288C58.8704 18.6444 59.1787 18.1377 59.1787 17.1888C59.1787 16.2398 58.8704 15.5754 58.2537 15.1006C57.8839 14.8161 57.39 14.6583 56.5574 14.6583H53.905V19.7518Z" fill="#0A2973"/>
</svg>
